# xmcd
#
# Track frame offsets: 
#        150
#        14448
#        32225
#        50292
#        66568
#        85085
#        98296
#        113653
#        134958
#        149615
#        167742
#        187780
#        202122
#        215542
#        230034
#        246011
#        257683
#        283173
#        300416
#        314628
#
# Disc length: 4418 seconds
#
# Revision: 0
# Processed by: cddbd v1.5.2PL0 Copyright (c) Steve Scherf et al.
# Submitted via: ExactAudioCopy v0.99pb4
#
DISCID=2b114014
DTITLE=Paul Westerberg - Paul Westerberg and His Paid Companions
DYEAR=1996
DGENRE=Ambient
TTITLE0=Waiting for Somebody
TTITLE1=World Class Fad
TTITLE2=Valentine
TTITLE3=Once Around the Weekend
TTITLE4=These Are the Days
TTITLE5=Kiss Me on the Bus
TTITLE6=Ain't Got Me
TTITLE7=Century
TTITLE8=MamaDaddyDid
TTITLE9=Merry Go Round
TTITLE10=Love Untold
TTITLE11=Can't Hardly Wait
TTITLE12=Daydream Believer
TTITLE13=Alex Chilton
TTITLE14=Left of the Dial
TTITLE15=Another Girl, Another Planet
TTITLE16=First Glimmer
TTITLE17=Knockin' on Mine
TTITLE18=Can't Hardly Wait
TTITLE19=Love Untold
EXTD=
EXTT0=
EXTT1=
EXTT2=
EXTT3=
EXTT4=
EXTT5=
EXTT6=
EXTT7=
EXTT8=
EXTT9=
EXTT10=
EXTT11=
EXTT12=
EXTT13=
EXTT14=
EXTT15=
EXTT16=
EXTT17=
EXTT18=
EXTT19=
PLAYORDER=
